<svg xmlns="http://www.w3.org/2000/svg" xmlns:xlink="http://www.w3.org/1999/xlink" version="1.1" x="0px" y="0px" viewBox="0 0 100 125" enable-background="new 0 0 100 100" xml:space="preserve"><g><path d="M95.732,32.399c-1.327,1.327-2.813,2.307-4.517,2.956L64.661,8.8c0.625-1.647,1.575-3.168,2.939-4.533   c0.977-0.976,0.977-2.559,0-3.536c-0.977-0.976-2.559-0.976-3.535,0c-9.119,9.12-4.817,22.022-0.658,34.5   c2.265,6.794,4.452,13.361,4.418,18.981L45.793,32.182c2.618-0.005,5.648,0.458,9.209,1.387c1.331,0.347,2.701-0.452,3.05-1.788   c0.349-1.336-0.452-2.701-1.788-3.05c-7.453-1.943-16.901-3.285-23.856,3.661c-0.003,0.003-0.006,0.005-0.009,0.008   c-9.119,9.12-4.818,22.022-0.658,34.5c2.219,6.655,4.362,13.093,4.416,18.636L14.469,63.85c2.539,0.034,5.459,0.497,8.865,1.387   c1.338,0.351,2.702-0.452,3.05-1.788s-0.452-2.701-1.788-3.05c-7.458-1.946-16.909-3.286-23.864,3.668   c-0.977,0.976-0.977,2.559,0,3.535C1.22,68.09,1.86,68.334,2.5,68.334s1.279-0.244,1.768-0.732c1.215-1.216,2.58-2.125,4.135-2.748   l26.738,26.737c-0.602,1.505-1.493,2.894-2.741,4.142c-0.977,0.976-0.977,2.559,0,3.535c0.488,0.488,1.128,0.732,1.768,0.732   s1.28-0.244,1.768-0.732c8.9-8.898,4.654-21.634,0.549-33.949c-2.35-7.049-4.616-13.858-4.449-19.672l22.318,22.318   c-2.651,0.064-5.718-0.359-9.331-1.271c-1.338-0.335-2.697,0.474-3.036,1.813c-0.338,1.338,0.473,2.697,1.812,3.035   c3.09,0.78,6.528,1.45,9.999,1.45c4.824,0,9.711-1.296,13.805-5.391c0.002-0.003,0.004-0.005,0.006-0.008   c8.891-8.899,4.647-21.63,0.543-33.942c-2.227-6.678-4.377-13.141-4.455-18.746l21.394,21.394c-2.435-0.043-5.201-0.465-8.4-1.271   c-1.335-0.337-2.697,0.473-3.035,1.812c-0.338,1.339,0.474,2.698,1.813,3.036c3.09,0.78,6.527,1.45,9.998,1.45   c4.824,0,9.711-1.295,13.804-5.39c0.977-0.977,0.977-2.56,0-3.536C98.291,31.423,96.707,31.422,95.732,32.399z M33.267,39.808   c0.619-1.394,1.486-2.691,2.666-3.872c0-0.001,0.001-0.001,0.002-0.002c1.152-1.152,2.44-2.025,3.896-2.645l26.873,26.872   c-0.598,1.412-1.454,2.72-2.635,3.901c-0.001,0.001-0.003,0.002-0.004,0.003c-1.153,1.154-2.431,2.039-3.861,2.68L33.267,39.808z"/><path d="M4.268,73.98c-0.976-0.977-2.56-0.977-3.535,0c-0.977,0.976-0.977,2.559,0,3.535l21.751,21.752   c0.488,0.488,1.128,0.732,1.768,0.732s1.28-0.244,1.768-0.732c0.977-0.976,0.977-2.559,0-3.535L4.268,73.98z"/><path d="M95.732,26.02c0.488,0.488,1.128,0.732,1.768,0.732s1.279-0.244,1.768-0.732c0.977-0.976,0.977-2.559,0-3.535L77.517,0.732   c-0.977-0.977-2.559-0.977-3.535,0c-0.977,0.976-0.977,2.559,0,3.535L95.732,26.02z"/></g><text x="0" y="115" fill="#000000" font-size="5px" font-weight="bold" font-family="'Helvetica Neue', Helvetica, Arial-Unicode, Arial, Sans-serif">Created by LAFS</text><text x="0" y="120" fill="#000000" font-size="5px" font-weight="bold" font-family="'Helvetica Neue', Helvetica, Arial-Unicode, Arial, Sans-serif">from the Noun Project</text></svg>